<?xml version="1.0" encoding="UTF-8" standalone="no"?>
<!DOCTYPE svg PUBLIC "-//W3C//DTD SVG 1.1//EN"
 "http://www.w3.org/Graphics/SVG/1.1/DTD/svg11.dtd">
<!-- Generated by graphviz version 2.38.0 (20140413.2041)
 -->
<!-- Title: controllers_diagram Pages: 1 -->
<svg width="1050pt" height="830pt"
 viewBox="0.00 0.00 1049.63 829.95" xmlns="http://www.w3.org/2000/svg" xmlns:xlink="http://www.w3.org/1999/xlink">
<g id="graph0" class="graph" transform="scale(1 1) rotate(0) translate(399.613 473.5)">
<title>controllers_diagram</title>
<polygon fill="white" stroke="none" points="-399.613,356.451 -399.613,-473.5 650.014,-473.5 650.014,356.451 -399.613,356.451"/>
<!-- _diagram_info -->
<g id="node1" class="node"><title>_diagram_info</title>
<text text-anchor="start" x="-299.688" y="-455.1" font-family="Times,serif" font-size="13.00">Controllers diagram</text>
<text text-anchor="start" x="-299.688" y="-442.1" font-family="Times,serif" font-size="13.00">Date: Sep 18 2014 &#45; 09:42</text>
<text text-anchor="start" x="-299.688" y="-429.1" font-family="Times,serif" font-size="13.00">Migration version: 20140915203001</text>
<text text-anchor="start" x="-299.688" y="-416.1" font-family="Times,serif" font-size="13.00">Generated by RailRoady 1.1.2</text>
<text text-anchor="start" x="-299.688" y="-403.1" font-family="Times,serif" font-size="13.00">http://railroady.prestonlee.com</text>
</g>
<!-- Api::V1::ApiController -->
<g id="node2" class="node"><title>Api::V1::ApiController</title>
<path fill="none" stroke="black" d="M-155.263,27.3588C-155.263,27.3588 -27.2212,27.3588 -27.2212,27.3588 -21.2212,27.3588 -15.2212,21.3588 -15.2212,15.3588 -15.2212,15.3588 -15.2212,-50.6412 -15.2212,-50.6412 -15.2212,-56.6412 -21.2212,-62.6412 -27.2212,-62.6412 -27.2212,-62.6412 -155.263,-62.6412 -155.263,-62.6412 -161.263,-62.6412 -167.263,-56.6412 -167.263,-50.6412 -167.263,-50.6412 -167.263,15.3588 -167.263,15.3588 -167.263,21.3588 -161.263,27.3588 -155.263,27.3588"/>
<text text-anchor="middle" x="-91.2422" y="-47.4412" font-family="Times,serif" font-size="14.00">Api::V1::ApiController</text>
<polyline fill="none" stroke="black" points="-167.263,-40.6412 -15.2212,-40.6412 "/>
<text text-anchor="start" x="-159.263" y="-25.4412" font-family="Times,serif" font-size="14.00">current_resource_owner</text>
<polyline fill="none" stroke="black" points="-167.263,-18.6412 -15.2212,-18.6412 "/>
<polyline fill="none" stroke="black" points="-167.263,5.35875 -15.2212,5.35875 "/>
<text text-anchor="start" x="-159.263" y="20.5588" font-family="Times,serif" font-size="14.00">_layout</text>
</g>
<!-- Api::V1::CredentialsController -->
<g id="node3" class="node"><title>Api::V1::CredentialsController</title>
<path fill="none" stroke="black" d="M-76.3477,-167.705C-76.3477,-167.705 109.287,-167.705 109.287,-167.705 115.287,-167.705 121.287,-173.705 121.287,-179.705 121.287,-179.705 121.287,-273.705 121.287,-273.705 121.287,-279.705 115.287,-285.705 109.287,-285.705 109.287,-285.705 -76.3477,-285.705 -76.3477,-285.705 -82.3477,-285.705 -88.3477,-279.705 -88.3477,-273.705 -88.3477,-273.705 -88.3477,-179.705 -88.3477,-179.705 -88.3477,-173.705 -82.3477,-167.705 -76.3477,-167.705"/>
<text text-anchor="middle" x="16.4697" y="-270.505" font-family="Times,serif" font-size="14.00">Api::V1::CredentialsController</text>
<polyline fill="none" stroke="black" points="-88.3477,-263.705 121.287,-263.705 "/>
<text text-anchor="start" x="-80.3477" y="-248.505" font-family="Times,serif" font-size="14.00">_callback_before_186</text>
<text text-anchor="start" x="-80.3477" y="-234.505" font-family="Times,serif" font-size="14.00">_one_time_conditions_valid_187?</text>
<text text-anchor="start" x="-80.3477" y="-220.505" font-family="Times,serif" font-size="14.00">me</text>
<polyline fill="none" stroke="black" points="-88.3477,-213.705 121.287,-213.705 "/>
<polyline fill="none" stroke="black" points="-88.3477,-189.705 121.287,-189.705 "/>
<text text-anchor="start" x="-80.3477" y="-174.505" font-family="Times,serif" font-size="14.00">_layout</text>
</g>
<!-- Api::V1::ApiController&#45;&gt;Api::V1::CredentialsController -->
<g id="edge2" class="edge"><title>Api::V1::ApiController&#45;&gt;Api::V1::CredentialsController</title>
<path fill="none" stroke="black" d="M-68.0029,-62.7476C-52.2326,-93.3571 -31.2175,-134.146 -14.0938,-167.383"/>
</g>
<!-- Api::V1::ProfilesController -->
<g id="node5" class="node"><title>Api::V1::ProfilesController</title>
<path fill="none" stroke="black" d="M-383.613,112.113C-383.613,112.113 -197.978,112.113 -197.978,112.113 -191.978,112.113 -185.978,106.113 -185.978,100.113 -185.978,100.113 -185.978,-35.8875 -185.978,-35.8875 -185.978,-41.8875 -191.978,-47.8875 -197.978,-47.8875 -197.978,-47.8875 -383.613,-47.8875 -383.613,-47.8875 -389.613,-47.8875 -395.613,-41.8875 -395.613,-35.8875 -395.613,-35.8875 -395.613,100.113 -395.613,100.113 -395.613,106.113 -389.613,112.113 -383.613,112.113"/>
<text text-anchor="middle" x="-290.795" y="-32.6875" font-family="Times,serif" font-size="14.00">Api::V1::ProfilesController</text>
<polyline fill="none" stroke="black" points="-395.613,-25.8875 -185.978,-25.8875 "/>
<text text-anchor="start" x="-387.613" y="-10.6875" font-family="Times,serif" font-size="14.00">_callback_before_190</text>
<text text-anchor="start" x="-387.613" y="3.31252" font-family="Times,serif" font-size="14.00">_callback_before_194</text>
<text text-anchor="start" x="-387.613" y="17.3125" font-family="Times,serif" font-size="14.00">_one_time_conditions_valid_191?</text>
<text text-anchor="start" x="-387.613" y="31.3125" font-family="Times,serif" font-size="14.00">_one_time_conditions_valid_195?</text>
<text text-anchor="start" x="-387.613" y="45.3125" font-family="Times,serif" font-size="14.00">create</text>
<text text-anchor="start" x="-387.613" y="59.3125" font-family="Times,serif" font-size="14.00">index</text>
<polyline fill="none" stroke="black" points="-395.613,66.1125 -185.978,66.1125 "/>
<polyline fill="none" stroke="black" points="-395.613,90.1125 -185.978,90.1125 "/>
<text text-anchor="start" x="-387.613" y="105.313" font-family="Times,serif" font-size="14.00">_layout</text>
</g>
<!-- Api::V1::ApiController&#45;&gt;Api::V1::ProfilesController -->
<g id="edge3" class="edge"><title>Api::V1::ApiController&#45;&gt;Api::V1::ProfilesController</title>
<path fill="none" stroke="black" d="M-167.539,1.38149C-173.59,2.8903 -179.764,4.42957 -185.964,5.97535"/>
</g>
<!-- Api::V1::UsersController -->
<g id="node6" class="node"><title>Api::V1::UsersController</title>
<path fill="none" stroke="black" d="M-353.316,-143.586C-353.316,-143.586 -167.682,-143.586 -167.682,-143.586 -161.682,-143.586 -155.682,-149.586 -155.682,-155.586 -155.682,-155.586 -155.682,-291.586 -155.682,-291.586 -155.682,-297.586 -161.682,-303.586 -167.682,-303.586 -167.682,-303.586 -353.316,-303.586 -353.316,-303.586 -359.316,-303.586 -365.316,-297.586 -365.316,-291.586 -365.316,-291.586 -365.316,-155.586 -365.316,-155.586 -365.316,-149.586 -359.316,-143.586 -353.316,-143.586"/>
<text text-anchor="middle" x="-260.499" y="-288.386" font-family="Times,serif" font-size="14.00">Api::V1::UsersController</text>
<polyline fill="none" stroke="black" points="-365.316,-281.586 -155.682,-281.586 "/>
<text text-anchor="start" x="-357.316" y="-266.386" font-family="Times,serif" font-size="14.00">_callback_before_198</text>
<text text-anchor="start" x="-357.316" y="-252.386" font-family="Times,serif" font-size="14.00">_callback_before_202</text>
<text text-anchor="start" x="-357.316" y="-238.386" font-family="Times,serif" font-size="14.00">_one_time_conditions_valid_199?</text>
<text text-anchor="start" x="-357.316" y="-224.386" font-family="Times,serif" font-size="14.00">_one_time_conditions_valid_203?</text>
<text text-anchor="start" x="-357.316" y="-210.386" font-family="Times,serif" font-size="14.00">create</text>
<text text-anchor="start" x="-357.316" y="-196.386" font-family="Times,serif" font-size="14.00">index</text>
<polyline fill="none" stroke="black" points="-365.316,-189.586 -155.682,-189.586 "/>
<polyline fill="none" stroke="black" points="-365.316,-165.586 -155.682,-165.586 "/>
<text text-anchor="start" x="-357.316" y="-150.386" font-family="Times,serif" font-size="14.00">_layout</text>
</g>
<!-- Api::V1::ApiController&#45;&gt;Api::V1::UsersController -->
<g id="edge4" class="edge"><title>Api::V1::ApiController&#45;&gt;Api::V1::UsersController</title>
<path fill="none" stroke="black" d="M-128.386,-62.8368C-147.751,-86.3993 -172.021,-115.929 -194.457,-143.229"/>
</g>
<!-- Api::V1::FastController -->
<g id="node4" class="node"><title>Api::V1::FastController</title>
<path fill="none" stroke="black" d="M407.986,-133C407.986,-133 634.014,-133 634.014,-133 640.014,-133 646.014,-139 646.014,-145 646.014,-145 646.014,-309 646.014,-309 646.014,-315 640.014,-321 634.014,-321 634.014,-321 407.986,-321 407.986,-321 401.986,-321 395.986,-315 395.986,-309 395.986,-309 395.986,-145 395.986,-145 395.986,-139 401.986,-133 407.986,-133"/>
<text text-anchor="middle" x="521" y="-305.8" font-family="Times,serif" font-size="14.00">Api::V1::FastController</text>
<polyline fill="none" stroke="black" points="395.986,-299 646.014,-299 "/>
<text text-anchor="start" x="403.986" y="-283.8" font-family="Times,serif" font-size="14.00">_callback_before_188</text>
<text text-anchor="start" x="403.986" y="-269.8" font-family="Times,serif" font-size="14.00">_one_time_conditions_valid_189?</text>
<text text-anchor="start" x="403.986" y="-255.8" font-family="Times,serif" font-size="14.00">_process_action_callbacks</text>
<text text-anchor="start" x="403.986" y="-241.8" font-family="Times,serif" font-size="14.00">_process_action_callbacks=</text>
<text text-anchor="start" x="403.986" y="-227.8" font-family="Times,serif" font-size="14.00">_process_action_callbacks?</text>
<text text-anchor="start" x="403.986" y="-213.8" font-family="Times,serif" font-size="14.00">index</text>
<polyline fill="none" stroke="black" points="395.986,-207 646.014,-207 "/>
<polyline fill="none" stroke="black" points="395.986,-183 646.014,-183 "/>
<text text-anchor="start" x="403.986" y="-167.8" font-family="Times,serif" font-size="14.00">_run_process_action_callbacks</text>
<text text-anchor="start" x="403.986" y="-153.8" font-family="Times,serif" font-size="14.00">doorkeeper_token</text>
<text text-anchor="start" x="403.986" y="-139.8" font-family="Times,serif" font-size="14.00">doorkeeper_unauthorized_render_options</text>
</g>
<!-- ApplicationController -->
<g id="node7" class="node"><title>ApplicationController</title>
<path fill="none" stroke="black" d="M6.34359,88.5991C6.34359,88.5991 191.978,88.5991 191.978,88.5991 197.978,88.5991 203.978,82.5991 203.978,76.5991 203.978,76.5991 203.978,10.5991 203.978,10.5991 203.978,4.59907 197.978,-1.40093 191.978,-1.40093 191.978,-1.40093 6.34359,-1.40093 6.34359,-1.40093 0.343594,-1.40093 -5.65641,4.59907 -5.65641,10.5991 -5.65641,10.5991 -5.65641,76.5991 -5.65641,76.5991 -5.65641,82.5991 0.343594,88.5991 6.34359,88.5991"/>
<text text-anchor="middle" x="99.161" y="13.7991" font-family="Times,serif" font-size="14.00">ApplicationController</text>
<polyline fill="none" stroke="black" points="-5.65641,20.5991 203.978,20.5991 "/>
<text text-anchor="start" x="2.34359" y="35.7991" font-family="Times,serif" font-size="14.00">_one_time_conditions_valid_185?</text>
<polyline fill="none" stroke="black" points="-5.65641,42.5991 203.978,42.5991 "/>
<polyline fill="none" stroke="black" points="-5.65641,66.5991 203.978,66.5991 "/>
<text text-anchor="start" x="2.34359" y="81.7991" font-family="Times,serif" font-size="14.00">_layout</text>
</g>
<!-- ApplicationController&#45;&gt;Api::V1::ApiController -->
<g id="edge1" class="edge"><title>ApplicationController&#45;&gt;Api::V1::ApiController</title>
<path fill="none" stroke="black" d="M-5.78728,9.84404C-8.89084,8.84583 -11.9804,7.8521 -15.0427,6.86717"/>
</g>
<!-- ImagesController -->
<g id="node8" class="node"><title>ImagesController</title>
<path fill="none" stroke="black" d="M226.317,-137.903C226.317,-137.903 316.29,-137.903 316.29,-137.903 322.29,-137.903 328.29,-143.903 328.29,-149.903 328.29,-149.903 328.29,-299.903 328.29,-299.903 328.29,-305.903 322.29,-311.903 316.29,-311.903 316.29,-311.903 226.317,-311.903 226.317,-311.903 220.317,-311.903 214.317,-305.903 214.317,-299.903 214.317,-299.903 214.317,-149.903 214.317,-149.903 214.317,-143.903 220.317,-137.903 226.317,-137.903"/>
<text text-anchor="middle" x="271.303" y="-296.703" font-family="Times,serif" font-size="14.00">ImagesController</text>
<polyline fill="none" stroke="black" points="214.317,-289.903 328.29,-289.903 "/>
<text text-anchor="start" x="222.317" y="-274.703" font-family="Times,serif" font-size="14.00">create</text>
<text text-anchor="start" x="222.317" y="-260.703" font-family="Times,serif" font-size="14.00">destroy</text>
<text text-anchor="start" x="222.317" y="-246.703" font-family="Times,serif" font-size="14.00">edit</text>
<text text-anchor="start" x="222.317" y="-232.703" font-family="Times,serif" font-size="14.00">index</text>
<text text-anchor="start" x="222.317" y="-218.703" font-family="Times,serif" font-size="14.00">new</text>
<text text-anchor="start" x="222.317" y="-204.703" font-family="Times,serif" font-size="14.00">show</text>
<text text-anchor="start" x="222.317" y="-190.703" font-family="Times,serif" font-size="14.00">update</text>
<polyline fill="none" stroke="black" points="214.317,-183.903 328.29,-183.903 "/>
<polyline fill="none" stroke="black" points="214.317,-159.903 328.29,-159.903 "/>
<text text-anchor="start" x="222.317" y="-144.703" font-family="Times,serif" font-size="14.00">_layout</text>
</g>
<!-- ApplicationController&#45;&gt;ImagesController -->
<g id="edge5" class="edge"><title>ApplicationController&#45;&gt;ImagesController</title>
<path fill="none" stroke="black" d="M128.168,-1.64511C151.979,-38.7848 186.394,-92.465 215.511,-137.881"/>
</g>
<!-- MessagesController -->
<g id="node9" class="node"><title>MessagesController</title>
<path fill="none" stroke="black" d="M-338.272,325.875C-338.272,325.875 -234.293,325.875 -234.293,325.875 -228.293,325.875 -222.293,319.875 -222.293,313.875 -222.293,313.875 -222.293,247.875 -222.293,247.875 -222.293,241.875 -228.293,235.875 -234.293,235.875 -234.293,235.875 -338.272,235.875 -338.272,235.875 -344.272,235.875 -350.272,241.875 -350.272,247.875 -350.272,247.875 -350.272,313.875 -350.272,313.875 -350.272,319.875 -344.272,325.875 -338.272,325.875"/>
<text text-anchor="middle" x="-286.282" y="251.075" font-family="Times,serif" font-size="14.00">MessagesController</text>
<polyline fill="none" stroke="black" points="-350.272,257.875 -222.293,257.875 "/>
<text text-anchor="start" x="-342.272" y="273.075" font-family="Times,serif" font-size="14.00">create</text>
<polyline fill="none" stroke="black" points="-350.272,279.875 -222.293,279.875 "/>
<polyline fill="none" stroke="black" points="-350.272,303.875 -222.293,303.875 "/>
<text text-anchor="start" x="-342.272" y="319.075" font-family="Times,serif" font-size="14.00">_layout</text>
</g>
<!-- ApplicationController&#45;&gt;MessagesController -->
<g id="edge6" class="edge"><title>ApplicationController&#45;&gt;MessagesController</title>
<path fill="none" stroke="black" d="M-5.69393,69.9694C-65.1088,88.4575 -138.499,117.551 -194.398,159.974 -221.279,180.374 -244.25,210.599 -260.501,235.725"/>
</g>
<!-- ReservationsController -->
<g id="node11" class="node"><title>ReservationsController</title>
<path fill="none" stroke="black" d="M239.808,88.0622C239.808,88.0622 361.67,88.0622 361.67,88.0622 367.67,88.0622 373.67,82.0622 373.67,76.0622 373.67,76.0622 373.67,-59.9378 373.67,-59.9378 373.67,-65.9378 367.67,-71.9378 361.67,-71.9378 361.67,-71.9378 239.808,-71.9378 239.808,-71.9378 233.808,-71.9378 227.808,-65.9378 227.808,-59.9378 227.808,-59.9378 227.808,76.0622 227.808,76.0622 227.808,82.0622 233.808,88.0622 239.808,88.0622"/>
<text text-anchor="middle" x="300.739" y="-56.7378" font-family="Times,serif" font-size="14.00">ReservationsController</text>
<polyline fill="none" stroke="black" points="227.808,-49.9378 373.67,-49.9378 "/>
<text text-anchor="start" x="235.808" y="-34.7378" font-family="Times,serif" font-size="14.00">create</text>
<text text-anchor="start" x="235.808" y="-20.7378" font-family="Times,serif" font-size="14.00">destroy</text>
<text text-anchor="start" x="235.808" y="-6.73776" font-family="Times,serif" font-size="14.00">index</text>
<text text-anchor="start" x="235.808" y="7.26224" font-family="Times,serif" font-size="14.00">new</text>
<text text-anchor="start" x="235.808" y="21.2622" font-family="Times,serif" font-size="14.00">restaurant_reservations</text>
<text text-anchor="start" x="235.808" y="35.2622" font-family="Times,serif" font-size="14.00">show</text>
<polyline fill="none" stroke="black" points="227.808,42.0622 373.67,42.0622 "/>
<polyline fill="none" stroke="black" points="227.808,66.0622 373.67,66.0622 "/>
<text text-anchor="start" x="235.808" y="81.2622" font-family="Times,serif" font-size="14.00">_layout</text>
</g>
<!-- ApplicationController&#45;&gt;ReservationsController -->
<g id="edge8" class="edge"><title>ApplicationController&#45;&gt;ReservationsController</title>
<path fill="none" stroke="black" d="M204.083,25.1021C212.023,23.7023 219.929,22.3085 227.603,20.9556"/>
</g>
<!-- RestaurantsController -->
<g id="node12" class="node"><title>RestaurantsController</title>
<path fill="none" stroke="black" d="M-179.198,337.174C-179.198,337.174 6.43641,337.174 6.43641,337.174 12.4364,337.174 18.4364,331.174 18.4364,325.174 18.4364,325.174 18.4364,175.174 18.4364,175.174 18.4364,169.174 12.4364,163.174 6.43641,163.174 6.43641,163.174 -179.198,163.174 -179.198,163.174 -185.198,163.174 -191.198,169.174 -191.198,175.174 -191.198,175.174 -191.198,325.174 -191.198,325.174 -191.198,331.174 -185.198,337.174 -179.198,337.174"/>
<text text-anchor="middle" x="-86.381" y="178.374" font-family="Times,serif" font-size="14.00">RestaurantsController</text>
<polyline fill="none" stroke="black" points="-191.198,185.174 18.4364,185.174 "/>
<text text-anchor="start" x="-183.198" y="200.374" font-family="Times,serif" font-size="14.00">_one_time_conditions_valid_287?</text>
<text text-anchor="start" x="-183.198" y="214.374" font-family="Times,serif" font-size="14.00">create</text>
<text text-anchor="start" x="-183.198" y="228.374" font-family="Times,serif" font-size="14.00">edit</text>
<text text-anchor="start" x="-183.198" y="242.374" font-family="Times,serif" font-size="14.00">index</text>
<text text-anchor="start" x="-183.198" y="256.374" font-family="Times,serif" font-size="14.00">new</text>
<text text-anchor="start" x="-183.198" y="270.374" font-family="Times,serif" font-size="14.00">show</text>
<text text-anchor="start" x="-183.198" y="284.374" font-family="Times,serif" font-size="14.00">update</text>
<polyline fill="none" stroke="black" points="-191.198,291.174 18.4364,291.174 "/>
<polyline fill="none" stroke="black" points="-191.198,315.174 18.4364,315.174 "/>
<text text-anchor="start" x="-183.198" y="330.374" font-family="Times,serif" font-size="14.00">_layout</text>
</g>
<!-- ApplicationController&#45;&gt;RestaurantsController -->
<g id="edge9" class="edge"><title>ApplicationController&#45;&gt;RestaurantsController</title>
<path fill="none" stroke="black" d="M58.6723,88.6775C39.0527,110.521 14.801,137.522 -8.21964,163.152"/>
</g>
<!-- ReviewsController -->
<g id="node13" class="node"><title>ReviewsController</title>
<path fill="none" stroke="black" d="M253.779,329.54C253.779,329.54 351.538,329.54 351.538,329.54 357.538,329.54 363.538,323.54 363.538,317.54 363.538,317.54 363.538,209.54 363.538,209.54 363.538,203.54 357.538,197.54 351.538,197.54 351.538,197.54 253.779,197.54 253.779,197.54 247.779,197.54 241.779,203.54 241.779,209.54 241.779,209.54 241.779,317.54 241.779,317.54 241.779,323.54 247.779,329.54 253.779,329.54"/>
<text text-anchor="middle" x="302.658" y="212.74" font-family="Times,serif" font-size="14.00">ReviewsController</text>
<polyline fill="none" stroke="black" points="241.779,219.54 363.538,219.54 "/>
<text text-anchor="start" x="249.779" y="234.74" font-family="Times,serif" font-size="14.00">create</text>
<text text-anchor="start" x="249.779" y="248.74" font-family="Times,serif" font-size="14.00">destroy</text>
<text text-anchor="start" x="249.779" y="262.74" font-family="Times,serif" font-size="14.00">index</text>
<text text-anchor="start" x="249.779" y="276.74" font-family="Times,serif" font-size="14.00">new</text>
<polyline fill="none" stroke="black" points="241.779,283.54 363.538,283.54 "/>
<polyline fill="none" stroke="black" points="241.779,307.54 363.538,307.54 "/>
<text text-anchor="start" x="249.779" y="322.74" font-family="Times,serif" font-size="14.00">_layout</text>
</g>
<!-- ApplicationController&#45;&gt;ReviewsController -->
<g id="edge10" class="edge"><title>ApplicationController&#45;&gt;ReviewsController</title>
<path fill="none" stroke="black" d="M140.833,88.6381C169.903,120.057 209.167,162.493 241.738,197.697"/>
</g>
<!-- SessionsController -->
<g id="node14" class="node"><title>SessionsController</title>
<path fill="none" stroke="black" d="M53.4999,351.951C53.4999,351.951 151.279,351.951 151.279,351.951 157.279,351.951 163.279,345.951 163.279,339.951 163.279,339.951 163.279,245.951 163.279,245.951 163.279,239.951 157.279,233.951 151.279,233.951 151.279,233.951 53.4999,233.951 53.4999,233.951 47.4999,233.951 41.4999,239.951 41.4999,245.951 41.4999,245.951 41.4999,339.951 41.4999,339.951 41.4999,345.951 47.4999,351.951 53.4999,351.951"/>
<text text-anchor="middle" x="102.39" y="249.151" font-family="Times,serif" font-size="14.00">SessionsController</text>
<polyline fill="none" stroke="black" points="41.4999,255.951 163.279,255.951 "/>
<text text-anchor="start" x="49.4999" y="271.151" font-family="Times,serif" font-size="14.00">create</text>
<text text-anchor="start" x="49.4999" y="285.151" font-family="Times,serif" font-size="14.00">destroy</text>
<text text-anchor="start" x="49.4999" y="299.151" font-family="Times,serif" font-size="14.00">new</text>
<polyline fill="none" stroke="black" points="41.4999,305.951 163.279,305.951 "/>
<polyline fill="none" stroke="black" points="41.4999,329.951 163.279,329.951 "/>
<text text-anchor="start" x="49.4999" y="345.151" font-family="Times,serif" font-size="14.00">_layout</text>
</g>
<!-- ApplicationController&#45;&gt;SessionsController -->
<g id="edge11" class="edge"><title>ApplicationController&#45;&gt;SessionsController</title>
<path fill="none" stroke="black" d="M99.7457,88.7548C100.271,129.314 101.045,189.144 101.621,233.568"/>
</g>
<!-- OmniauthCallbacksController -->
<g id="node10" class="node"><title>OmniauthCallbacksController</title>
<path fill="none" stroke="black" d="M-31.8942,-352.32C-31.8942,-352.32 128.851,-352.32 128.851,-352.32 134.851,-352.32 140.851,-358.32 140.851,-364.32 140.851,-364.32 140.851,-444.32 140.851,-444.32 140.851,-450.32 134.851,-456.32 128.851,-456.32 128.851,-456.32 -31.8942,-456.32 -31.8942,-456.32 -37.8942,-456.32 -43.8942,-450.32 -43.8942,-444.32 -43.8942,-444.32 -43.8942,-364.32 -43.8942,-364.32 -43.8942,-358.32 -37.8942,-352.32 -31.8942,-352.32"/>
<text text-anchor="middle" x="48.4783" y="-441.12" font-family="Times,serif" font-size="14.00">OmniauthCallbacksController</text>
<polyline fill="none" stroke="black" points="-43.8942,-434.32 140.851,-434.32 "/>
<text text-anchor="start" x="-35.8942" y="-419.12" font-family="Times,serif" font-size="14.00">all</text>
<text text-anchor="start" x="-35.8942" y="-405.12" font-family="Times,serif" font-size="14.00">twitter</text>
<polyline fill="none" stroke="black" points="-43.8942,-398.32 140.851,-398.32 "/>
<polyline fill="none" stroke="black" points="-43.8942,-374.32 140.851,-374.32 "/>
<text text-anchor="start" x="-35.8942" y="-359.12" font-family="Times,serif" font-size="14.00">_layout</text>
</g>
<!-- Devise::OmniauthCallbacksController -->
<g id="node15" class="node"><title>Devise::OmniauthCallbacksController</title>
<ellipse fill="none" stroke="black" cx="304.05" cy="-404.319" rx="146.34" ry="18"/>
<text text-anchor="middle" x="304.05" y="-400.119" font-family="Times,serif" font-size="14.00">Devise::OmniauthCallbacksController</text>
</g>
<!-- Devise::OmniauthCallbacksController&#45;&gt;OmniauthCallbacksController -->
<g id="edge7" class="edge"><title>Devise::OmniauthCallbacksController&#45;&gt;OmniauthCallbacksController</title>
<path fill="none" stroke="black" d="M157.605,-404.32C152.028,-404.32 146.5,-404.32 141.065,-404.32"/>
</g>
</g>
</svg>
