<?xml version="1.0" encoding="UTF-8" standalone="no"?>
<!DOCTYPE svg PUBLIC "-//W3C//DTD SVG 1.1//EN"
 "http://www.w3.org/Graphics/SVG/1.1/DTD/svg11.dtd">
<!-- Generated by graphviz version 2.38.0 (20140413.2041)
 -->
<!-- Title: models_diagram Pages: 1 -->
<svg width="954pt" height="621pt"
 viewBox="0.00 0.00 953.98 621.00" xmlns="http://www.w3.org/2000/svg" xmlns:xlink="http://www.w3.org/1999/xlink">
<g id="graph0" class="graph" transform="scale(1 1) rotate(0) translate(4 617)">
<title>models_diagram</title>
<polygon fill="white" stroke="none" points="-4,4 -4,-617 949.983,-617 949.983,4 -4,4"/>
<!-- _diagram_info -->
<g id="node1" class="node"><title>_diagram_info</title>
<text text-anchor="start" x="8" y="-598.6" font-family="Times,serif" font-size="13.00">Models diagram</text>
<text text-anchor="start" x="8" y="-585.6" font-family="Times,serif" font-size="13.00">Date: Sep 18 2014 &#45; 09:42</text>
<text text-anchor="start" x="8" y="-572.6" font-family="Times,serif" font-size="13.00">Migration version: 20140915203001</text>
<text text-anchor="start" x="8" y="-559.6" font-family="Times,serif" font-size="13.00">Generated by RailRoady 1.1.2</text>
<text text-anchor="start" x="8" y="-546.6" font-family="Times,serif" font-size="13.00">http://railroady.prestonlee.com</text>
</g>
<!-- Ability -->
<g id="node2" class="node"><title>Ability</title>
<polygon fill="none" stroke="black" points="184.853,-319.5 184.853,-363.5 240.522,-363.5 240.522,-319.5 184.853,-319.5"/>
<text text-anchor="middle" x="212.688" y="-348.3" font-family="Times,serif" font-size="14.00">Ability</text>
<polyline fill="none" stroke="black" points="184.853,-341.5 240.522,-341.5 "/>
<text text-anchor="middle" x="212.688" y="-326.3" font-family="Times,serif" font-size="14.00"> </text>
</g>
<!-- Chat -->
<g id="node3" class="node"><title>Chat</title>
<path fill="none" stroke="black" d="M338.182,-14.5C338.182,-14.5 447.193,-14.5 447.193,-14.5 453.193,-14.5 459.193,-20.5 459.193,-26.5 459.193,-26.5 459.193,-116.5 459.193,-116.5 459.193,-122.5 453.193,-128.5 447.193,-128.5 447.193,-128.5 338.182,-128.5 338.182,-128.5 332.182,-128.5 326.182,-122.5 326.182,-116.5 326.182,-116.5 326.182,-26.5 326.182,-26.5 326.182,-20.5 332.182,-14.5 338.182,-14.5"/>
<text text-anchor="middle" x="392.688" y="-113.3" font-family="Times,serif" font-size="14.00">Chat</text>
<polyline fill="none" stroke="black" points="326.182,-106.5 459.193,-106.5 "/>
<text text-anchor="start" x="334.182" y="-91.3" font-family="Times,serif" font-size="14.00">id :integer</text>
<text text-anchor="start" x="334.182" y="-77.3" font-family="Times,serif" font-size="14.00">message :string</text>
<text text-anchor="start" x="334.182" y="-63.3" font-family="Times,serif" font-size="14.00">user_id :string</text>
<text text-anchor="start" x="334.182" y="-49.3" font-family="Times,serif" font-size="14.00">restaurant_id :string</text>
<text text-anchor="start" x="334.182" y="-35.3" font-family="Times,serif" font-size="14.00">created_at :datetime</text>
<text text-anchor="start" x="334.182" y="-21.3" font-family="Times,serif" font-size="14.00">updated_at :datetime</text>
</g>
<!-- Image -->
<g id="node4" class="node"><title>Image</title>
<path fill="none" stroke="black" d="M795.393,-0.5C795.393,-0.5 933.983,-0.5 933.983,-0.5 939.983,-0.5 945.983,-6.5 945.983,-12.5 945.983,-12.5 945.983,-130.5 945.983,-130.5 945.983,-136.5 939.983,-142.5 933.983,-142.5 933.983,-142.5 795.393,-142.5 795.393,-142.5 789.393,-142.5 783.393,-136.5 783.393,-130.5 783.393,-130.5 783.393,-12.5 783.393,-12.5 783.393,-6.5 789.393,-0.5 795.393,-0.5"/>
<text text-anchor="middle" x="864.688" y="-127.3" font-family="Times,serif" font-size="14.00">Image</text>
<polyline fill="none" stroke="black" points="783.393,-120.5 945.983,-120.5 "/>
<text text-anchor="start" x="791.393" y="-105.3" font-family="Times,serif" font-size="14.00">id :integer</text>
<text text-anchor="start" x="791.393" y="-91.3" font-family="Times,serif" font-size="14.00">name :string</text>
<text text-anchor="start" x="791.393" y="-77.3" font-family="Times,serif" font-size="14.00">upload_description :string</text>
<text text-anchor="start" x="791.393" y="-63.3" font-family="Times,serif" font-size="14.00">description :string</text>
<text text-anchor="start" x="791.393" y="-49.3" font-family="Times,serif" font-size="14.00">user_id :integer</text>
<text text-anchor="start" x="791.393" y="-35.3" font-family="Times,serif" font-size="14.00">created_at :datetime</text>
<text text-anchor="start" x="791.393" y="-21.3" font-family="Times,serif" font-size="14.00">updated_at :datetime</text>
<text text-anchor="start" x="791.393" y="-7.3" font-family="Times,serif" font-size="14.00">picture :string</text>
</g>
<!-- Reservation -->
<g id="node5" class="node"><title>Reservation</title>
<path fill="none" stroke="black" d="M489.017,-0.5C489.017,-0.5 600.359,-0.5 600.359,-0.5 606.359,-0.5 612.359,-6.5 612.359,-12.5 612.359,-12.5 612.359,-130.5 612.359,-130.5 612.359,-136.5 606.359,-142.5 600.359,-142.5 600.359,-142.5 489.017,-142.5 489.017,-142.5 483.017,-142.5 477.017,-136.5 477.017,-130.5 477.017,-130.5 477.017,-12.5 477.017,-12.5 477.017,-6.5 483.017,-0.5 489.017,-0.5"/>
<text text-anchor="middle" x="544.688" y="-127.3" font-family="Times,serif" font-size="14.00">Reservation</text>
<polyline fill="none" stroke="black" points="477.017,-120.5 612.359,-120.5 "/>
<text text-anchor="start" x="485.017" y="-105.3" font-family="Times,serif" font-size="14.00">id :integer</text>
<text text-anchor="start" x="485.017" y="-91.3" font-family="Times,serif" font-size="14.00">user_id :integer</text>
<text text-anchor="start" x="485.017" y="-77.3" font-family="Times,serif" font-size="14.00">restaurant_id :integer</text>
<text text-anchor="start" x="485.017" y="-63.3" font-family="Times,serif" font-size="14.00">date :date</text>
<text text-anchor="start" x="485.017" y="-49.3" font-family="Times,serif" font-size="14.00">start_time :time</text>
<text text-anchor="start" x="485.017" y="-35.3" font-family="Times,serif" font-size="14.00">created_at :datetime</text>
<text text-anchor="start" x="485.017" y="-21.3" font-family="Times,serif" font-size="14.00">updated_at :datetime</text>
<text text-anchor="start" x="485.017" y="-7.3" font-family="Times,serif" font-size="14.00">seats :integer</text>
</g>
<!-- Restaurant -->
<g id="node6" class="node"><title>Restaurant</title>
<path fill="none" stroke="black" d="M417.182,-249.5C417.182,-249.5 526.193,-249.5 526.193,-249.5 532.193,-249.5 538.193,-255.5 538.193,-261.5 538.193,-261.5 538.193,-421.5 538.193,-421.5 538.193,-427.5 532.193,-433.5 526.193,-433.5 526.193,-433.5 417.182,-433.5 417.182,-433.5 411.182,-433.5 405.182,-427.5 405.182,-421.5 405.182,-421.5 405.182,-261.5 405.182,-261.5 405.182,-255.5 411.182,-249.5 417.182,-249.5"/>
<text text-anchor="middle" x="471.688" y="-418.3" font-family="Times,serif" font-size="14.00">Restaurant</text>
<polyline fill="none" stroke="black" points="405.182,-411.5 538.193,-411.5 "/>
<text text-anchor="start" x="413.182" y="-396.3" font-family="Times,serif" font-size="14.00">id :integer</text>
<text text-anchor="start" x="413.182" y="-382.3" font-family="Times,serif" font-size="14.00">name :string</text>
<text text-anchor="start" x="413.182" y="-368.3" font-family="Times,serif" font-size="14.00">lng :float</text>
<text text-anchor="start" x="413.182" y="-354.3" font-family="Times,serif" font-size="14.00">lat :float</text>
<text text-anchor="start" x="413.182" y="-340.3" font-family="Times,serif" font-size="14.00">price :integer</text>
<text text-anchor="start" x="413.182" y="-326.3" font-family="Times,serif" font-size="14.00">food_style :string</text>
<text text-anchor="start" x="413.182" y="-312.3" font-family="Times,serif" font-size="14.00">description :text</text>
<text text-anchor="start" x="413.182" y="-298.3" font-family="Times,serif" font-size="14.00">created_at :datetime</text>
<text text-anchor="start" x="413.182" y="-284.3" font-family="Times,serif" font-size="14.00">updated_at :datetime</text>
<text text-anchor="start" x="413.182" y="-270.3" font-family="Times,serif" font-size="14.00">user_id :integer</text>
<text text-anchor="start" x="413.182" y="-256.3" font-family="Times,serif" font-size="14.00">city :string</text>
</g>
<!-- Restaurant&#45;&gt;Chat -->
<g id="edge7" class="edge"><title>Restaurant&#45;&gt;Chat</title>
<path fill="none" stroke="#b5725d" d="M442.458,-241.342C432.34,-207.015 421.255,-169.411 412.12,-138.422"/>
<ellipse fill="none" stroke="#b5725d" cx="443.701" cy="-245.557" rx="4.00001" ry="4.00001"/>
<polygon fill="#b5725d" stroke="#b5725d" points="412.054,-138.197 413.543,-127.333 410.64,-133.401 409.226,-128.605 409.226,-128.605 409.226,-128.605 410.64,-133.401 404.91,-129.877 412.054,-138.197 412.054,-138.197"/>
</g>
<!-- Restaurant&#45;&gt;Reservation -->
<g id="edge6" class="edge"><title>Restaurant&#45;&gt;Reservation</title>
<path fill="none" stroke="#9a05c3" d="M498.639,-241.555C506.644,-212.168 515.307,-180.362 522.937,-152.351"/>
<ellipse fill="none" stroke="#9a05c3" cx="497.555" cy="-245.534" rx="4.00001" ry="4.00001"/>
<polygon fill="#9a05c3" stroke="#9a05c3" points="522.962,-152.26 529.932,-143.794 524.276,-147.436 525.59,-142.612 525.59,-142.612 525.59,-142.612 524.276,-147.436 521.248,-141.429 522.962,-152.26 522.962,-152.26"/>
</g>
<!-- Review -->
<g id="node7" class="node"><title>Review</title>
<path fill="none" stroke="black" d="M642.017,-7.5C642.017,-7.5 753.359,-7.5 753.359,-7.5 759.359,-7.5 765.359,-13.5 765.359,-19.5 765.359,-19.5 765.359,-123.5 765.359,-123.5 765.359,-129.5 759.359,-135.5 753.359,-135.5 753.359,-135.5 642.017,-135.5 642.017,-135.5 636.017,-135.5 630.017,-129.5 630.017,-123.5 630.017,-123.5 630.017,-19.5 630.017,-19.5 630.017,-13.5 636.017,-7.5 642.017,-7.5"/>
<text text-anchor="middle" x="697.688" y="-120.3" font-family="Times,serif" font-size="14.00">Review</text>
<polyline fill="none" stroke="black" points="630.017,-113.5 765.359,-113.5 "/>
<text text-anchor="start" x="638.017" y="-98.3" font-family="Times,serif" font-size="14.00">id :integer</text>
<text text-anchor="start" x="638.017" y="-84.3" font-family="Times,serif" font-size="14.00">title :string</text>
<text text-anchor="start" x="638.017" y="-70.3" font-family="Times,serif" font-size="14.00">review :text</text>
<text text-anchor="start" x="638.017" y="-56.3" font-family="Times,serif" font-size="14.00">user_id :integer</text>
<text text-anchor="start" x="638.017" y="-42.3" font-family="Times,serif" font-size="14.00">restaurant_id :integer</text>
<text text-anchor="start" x="638.017" y="-28.3" font-family="Times,serif" font-size="14.00">created_at :datetime</text>
<text text-anchor="start" x="638.017" y="-14.3" font-family="Times,serif" font-size="14.00">updated_at :datetime</text>
</g>
<!-- Restaurant&#45;&gt;Review -->
<g id="edge5" class="edge"><title>Restaurant&#45;&gt;Review</title>
<path fill="none" stroke="#8bf72e" d="M536.142,-242.628C551.603,-221.061 568.606,-198.768 585.688,-179 589.676,-174.385 604.961,-159.612 623.015,-142.479"/>
<ellipse fill="none" stroke="#8bf72e" cx="533.715" cy="-246.036" rx="4.00002" ry="4.00002"/>
<polygon fill="#8bf72e" stroke="#8bf72e" points="623.07,-142.427 633.425,-138.817 626.701,-138.988 630.331,-135.55 630.331,-135.55 630.331,-135.55 626.701,-138.988 627.236,-132.283 623.07,-142.427 623.07,-142.427"/>
</g>
<!-- TextMessage -->
<g id="node8" class="node"><title>TextMessage</title>
<polygon fill="none" stroke="black" points="258.856,-319.5 258.856,-363.5 348.52,-363.5 348.52,-319.5 258.856,-319.5"/>
<text text-anchor="middle" x="303.688" y="-348.3" font-family="Times,serif" font-size="14.00">TextMessage</text>
<polyline fill="none" stroke="black" points="258.856,-341.5 348.52,-341.5 "/>
<text text-anchor="middle" x="303.688" y="-326.3" font-family="Times,serif" font-size="14.00"> </text>
</g>
<!-- User -->
<g id="node9" class="node"><title>User</title>
<path fill="none" stroke="black" d="M606.41,-179.5C606.41,-179.5 786.966,-179.5 786.966,-179.5 792.966,-179.5 798.966,-185.5 798.966,-191.5 798.966,-191.5 798.966,-491.5 798.966,-491.5 798.966,-497.5 792.966,-503.5 786.966,-503.5 786.966,-503.5 606.41,-503.5 606.41,-503.5 600.41,-503.5 594.41,-497.5 594.41,-491.5 594.41,-491.5 594.41,-191.5 594.41,-191.5 594.41,-185.5 600.41,-179.5 606.41,-179.5"/>
<text text-anchor="middle" x="696.688" y="-488.3" font-family="Times,serif" font-size="14.00">User</text>
<polyline fill="none" stroke="black" points="594.41,-481.5 798.966,-481.5 "/>
<text text-anchor="start" x="602.41" y="-466.3" font-family="Times,serif" font-size="14.00">id :integer</text>
<text text-anchor="start" x="602.41" y="-452.3" font-family="Times,serif" font-size="14.00">email :string</text>
<text text-anchor="start" x="602.41" y="-438.3" font-family="Times,serif" font-size="14.00">encrypted_password :string</text>
<text text-anchor="start" x="602.41" y="-424.3" font-family="Times,serif" font-size="14.00">reset_password_token :string</text>
<text text-anchor="start" x="602.41" y="-410.3" font-family="Times,serif" font-size="14.00">reset_password_sent_at :datetime</text>
<text text-anchor="start" x="602.41" y="-396.3" font-family="Times,serif" font-size="14.00">remember_created_at :datetime</text>
<text text-anchor="start" x="602.41" y="-382.3" font-family="Times,serif" font-size="14.00">sign_in_count :integer</text>
<text text-anchor="start" x="602.41" y="-368.3" font-family="Times,serif" font-size="14.00">current_sign_in_at :datetime</text>
<text text-anchor="start" x="602.41" y="-354.3" font-family="Times,serif" font-size="14.00">last_sign_in_at :datetime</text>
<text text-anchor="start" x="602.41" y="-340.3" font-family="Times,serif" font-size="14.00">current_sign_in_ip :string</text>
<text text-anchor="start" x="602.41" y="-326.3" font-family="Times,serif" font-size="14.00">last_sign_in_ip :string</text>
<text text-anchor="start" x="602.41" y="-312.3" font-family="Times,serif" font-size="14.00">created_at :datetime</text>
<text text-anchor="start" x="602.41" y="-298.3" font-family="Times,serif" font-size="14.00">updated_at :datetime</text>
<text text-anchor="start" x="602.41" y="-284.3" font-family="Times,serif" font-size="14.00">username :string</text>
<text text-anchor="start" x="602.41" y="-270.3" font-family="Times,serif" font-size="14.00">first_name :string</text>
<text text-anchor="start" x="602.41" y="-256.3" font-family="Times,serif" font-size="14.00">last_name :string</text>
<text text-anchor="start" x="602.41" y="-242.3" font-family="Times,serif" font-size="14.00">provider :string</text>
<text text-anchor="start" x="602.41" y="-228.3" font-family="Times,serif" font-size="14.00">uid :string</text>
<text text-anchor="start" x="602.41" y="-214.3" font-family="Times,serif" font-size="14.00">role :string</text>
<text text-anchor="start" x="602.41" y="-200.3" font-family="Times,serif" font-size="14.00">restaurant_id :integer</text>
<text text-anchor="start" x="602.41" y="-186.3" font-family="Times,serif" font-size="14.00">mobile :integer</text>
</g>
<!-- User&#45;&gt;Chat -->
<g id="edge12" class="edge"><title>User&#45;&gt;Chat</title>
<path fill="none" stroke="#91557a" d="M588.35,-212.741C575.31,-200.578 561.646,-189.055 547.688,-179 516.051,-156.211 500.115,-164.649 467.688,-143 463.993,-140.533 460.309,-137.881 456.667,-135.102"/>
<ellipse fill="none" stroke="#91557a" cx="591.392" cy="-215.621" rx="4.00002" ry="4.00002"/>
<polygon fill="#91557a" stroke="#91557a" points="456.61,-135.057 451.576,-125.315 452.694,-131.948 448.778,-128.84 448.778,-128.84 448.778,-128.84 452.694,-131.948 445.98,-132.364 456.61,-135.057 456.61,-135.057"/>
</g>
<!-- User&#45;&gt;Image -->
<g id="edge13" class="edge"><title>User&#45;&gt;Image</title>
<path fill="none" stroke="#98be2e" d="M802.239,-172.121C806.614,-165.142 810.905,-158.296 815.061,-151.667"/>
<ellipse fill="none" stroke="#98be2e" cx="799.932" cy="-175.802" rx="4.00002" ry="4.00002"/>
<polygon fill="#98be2e" stroke="#98be2e" points="815.327,-151.242 824.451,-145.159 817.983,-147.005 820.639,-142.769 820.639,-142.769 820.639,-142.769 817.983,-147.005 816.826,-140.379 815.327,-151.242 815.327,-151.242"/>
</g>
<!-- User&#45;&gt;Reservation -->
<g id="edge14" class="edge"><title>User&#45;&gt;Reservation</title>
<path fill="none" stroke="#a02979" d="M601.189,-172.121C597.231,-165.142 593.348,-158.296 589.588,-151.667"/>
<ellipse fill="none" stroke="#a02979" cx="603.226" cy="-175.711" rx="4.00002" ry="4.00002"/>
<polygon fill="#a02979" stroke="#a02979" points="589.475,-151.467 588.456,-140.549 587.008,-147.118 584.542,-142.769 584.542,-142.769 584.542,-142.769 587.008,-147.118 580.627,-144.989 589.475,-151.467 589.475,-151.467"/>
</g>
<!-- User&#45;&gt;Review -->
<g id="edge11" class="edge"><title>User&#45;&gt;Review</title>
<path fill="none" stroke="#5f6807" d="M697.32,-170.997C697.353,-162.292 697.384,-153.802 697.415,-145.69"/>
<ellipse fill="none" stroke="#5f6807" cx="697.305" cy="-175.191" rx="4" ry="4"/>
<polygon fill="#5f6807" stroke="#5f6807" points="697.415,-145.628 701.952,-135.645 697.433,-140.628 697.452,-135.628 697.452,-135.628 697.452,-135.628 697.433,-140.628 692.952,-135.611 697.415,-145.628 697.415,-145.628"/>
</g>
<!-- Object -->
<g id="node10" class="node"><title>Object</title>
<ellipse fill="none" stroke="black" cx="258.688" cy="-576.5" rx="33.8596" ry="18"/>
<text text-anchor="middle" x="258.688" y="-572.3" font-family="Times,serif" font-size="14.00">Object</text>
</g>
<!-- Object&#45;&gt;Ability -->
<g id="edge1" class="edge"><title>Object&#45;&gt;Ability</title>
<path fill="none" stroke="black" d="M255.305,-558.367C247.047,-516.539 225.876,-409.3 216.857,-363.619"/>
</g>
<!-- Object&#45;&gt;TextMessage -->
<g id="edge10" class="edge"><title>Object&#45;&gt;TextMessage</title>
<path fill="none" stroke="black" d="M261.997,-558.367C270.075,-516.539 290.786,-409.3 299.609,-363.619"/>
</g>
<!-- ActiveRecord::Base -->
<g id="node11" class="node"><title>ActiveRecord::Base</title>
<ellipse fill="none" stroke="black" cx="631.688" cy="-576.5" rx="81.1422" ry="18"/>
<text text-anchor="middle" x="631.688" y="-572.3" font-family="Times,serif" font-size="14.00">ActiveRecord::Base</text>
</g>
<!-- ActiveRecord::Base&#45;&gt;Chat -->
<g id="edge2" class="edge"><title>ActiveRecord::Base&#45;&gt;Chat</title>
<path fill="none" stroke="black" d="M568.861,-565.059C506.264,-553.228 416.543,-531.906 395.688,-504 352.579,-446.316 372.526,-231.92 385.133,-128.717"/>
</g>
<!-- ActiveRecord::Base&#45;&gt;Image -->
<g id="edge3" class="edge"><title>ActiveRecord::Base&#45;&gt;Image</title>
<path fill="none" stroke="black" d="M706.004,-569.098C750.348,-561.115 803.699,-543.354 833.688,-504 913.58,-399.159 898.502,-235.271 881.119,-142.567"/>
</g>
<!-- ActiveRecord::Base&#45;&gt;Reservation -->
<g id="edge4" class="edge"><title>ActiveRecord::Base&#45;&gt;Reservation</title>
<path fill="none" stroke="black" d="M617.411,-558.521C606.707,-544.757 592.736,-524.365 585.688,-504 563.228,-439.111 551.954,-247.445 547.332,-142.737"/>
</g>
<!-- ActiveRecord::Base&#45;&gt;Restaurant -->
<g id="edge8" class="edge"><title>ActiveRecord::Base&#45;&gt;Restaurant</title>
<path fill="none" stroke="black" d="M609.519,-559.15C592.43,-545.732 569.033,-525.5 552.688,-504 536.457,-482.651 522.032,-457.547 510.018,-433.579"/>
</g>
<!-- ActiveRecord::Base&#45;&gt;Review -->
<g id="edge9" class="edge"><title>ActiveRecord::Base&#45;&gt;Review</title>
<path fill="none" stroke="black" d="M699.782,-566.54C738.388,-557.587 783.654,-539.705 807.688,-504 848.017,-444.087 835.864,-245.499 807.688,-179 806.307,-175.742 787.038,-156.763 765.002,-135.707"/>
</g>
<!-- ActiveRecord::Base&#45;&gt;User -->
<g id="edge15" class="edge"><title>ActiveRecord::Base&#45;&gt;User</title>
<path fill="none" stroke="black" d="M636.467,-558.367C640.132,-545.23 645.597,-525.641 651.764,-503.533"/>
</g>
</g>
</svg>
