<?xml version="1.0" encoding="UTF-8" standalone="no"?>
<!DOCTYPE svg PUBLIC "-//W3C//DTD SVG 1.1//EN"
 "http://www.w3.org/Graphics/SVG/1.1/DTD/svg11.dtd">
<!-- Generated by graphviz version 2.38.0 (20140413.2041)
 -->
<!-- Title: models_diagram Pages: 1 -->
<svg width="717pt" height="225pt"
 viewBox="0.00 0.00 716.89 225.00" xmlns="http://www.w3.org/2000/svg" xmlns:xlink="http://www.w3.org/1999/xlink">
<g id="graph0" class="graph" transform="scale(1 1) rotate(0) translate(4 221)">
<title>models_diagram</title>
<polygon fill="white" stroke="none" points="-4,4 -4,-221 712.89,-221 712.89,4 -4,4"/>
<!-- _diagram_info -->
<g id="node1" class="node"><title>_diagram_info</title>
<text text-anchor="start" x="8" y="-202.6" font-family="Times,serif" font-size="13.00">Models diagram</text>
<text text-anchor="start" x="8" y="-189.6" font-family="Times,serif" font-size="13.00">Date: Sep 18 2014 &#45; 09:42</text>
<text text-anchor="start" x="8" y="-176.6" font-family="Times,serif" font-size="13.00">Migration version: 20140915203001</text>
<text text-anchor="start" x="8" y="-163.6" font-family="Times,serif" font-size="13.00">Generated by RailRoady 1.1.2</text>
<text text-anchor="start" x="8" y="-150.6" font-family="Times,serif" font-size="13.00">http://railroady.prestonlee.com</text>
</g>
<!-- Ability -->
<g id="node2" class="node"><title>Ability</title>
<polygon fill="none" stroke="black" points="240.358,-108 185.018,-108 185.018,-72 240.358,-72 240.358,-108"/>
<text text-anchor="middle" x="212.688" y="-85.8" font-family="Times,serif" font-size="14.00">Ability</text>
</g>
<!-- Chat -->
<g id="node3" class="node"><title>Chat</title>
<ellipse fill="none" stroke="black" cx="385.688" cy="-18" rx="27" ry="18"/>
<text text-anchor="middle" x="385.688" y="-13.8" font-family="Times,serif" font-size="14.00">Chat</text>
</g>
<!-- Image -->
<g id="node4" class="node"><title>Image</title>
<ellipse fill="none" stroke="black" cx="676.688" cy="-18" rx="32.4063" ry="18"/>
<text text-anchor="middle" x="676.688" y="-13.8" font-family="Times,serif" font-size="14.00">Image</text>
</g>
<!-- Reservation -->
<g id="node5" class="node"><title>Reservation</title>
<ellipse fill="none" stroke="black" cx="482.688" cy="-18" rx="52.1934" ry="18"/>
<text text-anchor="middle" x="482.688" y="-13.8" font-family="Times,serif" font-size="14.00">Reservation</text>
</g>
<!-- Restaurant -->
<g id="node6" class="node"><title>Restaurant</title>
<ellipse fill="none" stroke="black" cx="452.688" cy="-90" rx="47.8496" ry="18"/>
<text text-anchor="middle" x="452.688" y="-85.8" font-family="Times,serif" font-size="14.00">Restaurant</text>
</g>
<!-- Restaurant&#45;&gt;Chat -->
<g id="edge7" class="edge"><title>Restaurant&#45;&gt;Chat</title>
<path fill="none" stroke="#6578f4" d="M431.605,-66.9731C423.661,-58.6731 414.631,-49.2393 406.694,-40.9466"/>
<ellipse fill="none" stroke="#6578f4" cx="434.382" cy="-69.875" rx="4.00002" ry="4.00002"/>
<polygon fill="#6578f4" stroke="#6578f4" points="406.689,-40.9412 403.025,-30.6054 403.231,-37.3291 399.774,-33.717 399.774,-33.717 399.774,-33.717 403.231,-37.3291 396.523,-36.8285 406.689,-40.9412 406.689,-40.9412"/>
</g>
<!-- Restaurant&#45;&gt;Reservation -->
<g id="edge6" class="edge"><title>Restaurant&#45;&gt;Reservation</title>
<path fill="none" stroke="#4637b6" d="M463.167,-64.5475C465.79,-58.4284 468.616,-51.8347 471.281,-45.6163"/>
<ellipse fill="none" stroke="#4637b6" cx="461.526" cy="-68.3784" rx="4.00002" ry="4.00002"/>
<polygon fill="#4637b6" stroke="#4637b6" points="471.345,-45.4668 479.42,-38.048 473.314,-40.871 475.284,-36.2753 475.284,-36.2753 475.284,-36.2753 473.314,-40.871 471.148,-34.5026 471.345,-45.4668 471.345,-45.4668"/>
</g>
<!-- Review -->
<g id="node7" class="node"><title>Review</title>
<ellipse fill="none" stroke="black" cx="589.688" cy="-18" rx="37.2421" ry="18"/>
<text text-anchor="middle" x="589.688" y="-13.8" font-family="Times,serif" font-size="14.00">Review</text>
</g>
<!-- Restaurant&#45;&gt;Review -->
<g id="edge5" class="edge"><title>Restaurant&#45;&gt;Review</title>
<path fill="none" stroke="#975b78" d="M487.348,-71.2903C508.384,-60.5422 535.105,-46.8889 555.968,-36.2291"/>
<ellipse fill="none" stroke="#975b78" cx="483.644" cy="-73.1827" rx="4.00002" ry="4.00002"/>
<polygon fill="#975b78" stroke="#975b78" points="556.195,-36.1132 567.147,-35.5704 560.647,-33.8382 565.1,-31.5632 565.1,-31.5632 565.1,-31.5632 560.647,-33.8382 563.052,-27.556 556.195,-36.1132 556.195,-36.1132"/>
</g>
<!-- TextMessage -->
<g id="node8" class="node"><title>TextMessage</title>
<polygon fill="none" stroke="black" points="348.352,-108 259.023,-108 259.023,-72 348.352,-72 348.352,-108"/>
<text text-anchor="middle" x="303.688" y="-85.8" font-family="Times,serif" font-size="14.00">TextMessage</text>
</g>
<!-- User -->
<g id="node9" class="node"><title>User</title>
<ellipse fill="none" stroke="black" cx="583.688" cy="-90" rx="27" ry="18"/>
<text text-anchor="middle" x="583.688" y="-85.8" font-family="Times,serif" font-size="14.00">User</text>
</g>
<!-- User&#45;&gt;Chat -->
<g id="edge12" class="edge"><title>User&#45;&gt;Chat</title>
<path fill="none" stroke="#69abc5" d="M551.241,-79.6894C518.229,-69.9141 465.792,-53.5485 421.688,-36 419.857,-35.2717 417.988,-34.4949 416.112,-33.6894"/>
<ellipse fill="none" stroke="#69abc5" cx="555.36" cy="-80.9008" rx="4.00001" ry="4.00001"/>
<polygon fill="#69abc5" stroke="#69abc5" points="415.937,-33.6107 408.657,-25.4093 411.375,-31.5626 406.814,-29.5144 406.814,-29.5144 406.814,-29.5144 411.375,-31.5626 404.971,-33.6196 415.937,-33.6107 415.937,-33.6107"/>
</g>
<!-- User&#45;&gt;Image -->
<g id="edge13" class="edge"><title>User&#45;&gt;Image</title>
<path fill="none" stroke="#fd06d7" d="M607.638,-70.9727C620.594,-61.2211 636.631,-49.1501 649.988,-39.0965"/>
<ellipse fill="none" stroke="#fd06d7" cx="604.376" cy="-73.428" rx="4.00002" ry="4.00002"/>
<polygon fill="#fd06d7" stroke="#fd06d7" points="650.329,-38.8396 661.025,-36.4212 654.324,-35.8327 658.319,-32.8258 658.319,-32.8258 658.319,-32.8258 654.324,-35.8327 655.613,-29.2305 650.329,-38.8396 650.329,-38.8396"/>
</g>
<!-- User&#45;&gt;Reservation -->
<g id="edge14" class="edge"><title>User&#45;&gt;Reservation</title>
<path fill="none" stroke="#78c5db" d="M558.879,-71.8057C545.05,-62.221 527.717,-50.2081 513.078,-40.0627"/>
<ellipse fill="none" stroke="#78c5db" cx="562.343" cy="-74.2068" rx="4.00002" ry="4.00002"/>
<polygon fill="#78c5db" stroke="#78c5db" points="513.037,-40.0338 507.381,-30.6389 508.927,-37.1856 504.817,-34.3375 504.817,-34.3375 504.817,-34.3375 508.927,-37.1856 502.254,-38.036 513.037,-40.0338 513.037,-40.0338"/>
</g>
<!-- User&#45;&gt;Review -->
<g id="edge11" class="edge"><title>User&#45;&gt;Review</title>
<path fill="none" stroke="#832068" d="M585.861,-63.6398C586.339,-58.0629 586.848,-52.1319 587.333,-46.4761"/>
<ellipse fill="none" stroke="#832068" cx="585.513" cy="-67.7112" rx="4" ry="4"/>
<polygon fill="#832068" stroke="#832068" points="587.368,-46.0678 592.705,-36.4887 587.795,-41.0861 588.222,-36.1043 588.222,-36.1043 588.222,-36.1043 587.795,-41.0861 583.738,-35.72 587.368,-46.0678 587.368,-46.0678"/>
</g>
<!-- Object -->
<g id="node10" class="node"><title>Object</title>
<ellipse fill="none" stroke="black" cx="258.688" cy="-180.5" rx="33.8596" ry="18"/>
<text text-anchor="middle" x="258.688" y="-176.3" font-family="Times,serif" font-size="14.00">Object</text>
</g>
<!-- Object&#45;&gt;Ability -->
<g id="edge1" class="edge"><title>Object&#45;&gt;Ability</title>
<path fill="none" stroke="black" d="M250.035,-162.854C241.916,-147.232 229.823,-123.967 221.615,-108.175"/>
</g>
<!-- Object&#45;&gt;TextMessage -->
<g id="edge10" class="edge"><title>Object&#45;&gt;TextMessage</title>
<path fill="none" stroke="black" d="M267.152,-162.854C275.095,-147.232 286.925,-123.967 294.955,-108.175"/>
</g>
<!-- ActiveRecord::Base -->
<g id="node11" class="node"><title>ActiveRecord::Base</title>
<ellipse fill="none" stroke="black" cx="556.688" cy="-180.5" rx="81.1422" ry="18"/>
<text text-anchor="middle" x="556.688" y="-176.3" font-family="Times,serif" font-size="14.00">ActiveRecord::Base</text>
</g>
<!-- ActiveRecord::Base&#45;&gt;Chat -->
<g id="edge2" class="edge"><title>ActiveRecord::Base&#45;&gt;Chat</title>
<path fill="none" stroke="black" d="M496.355,-168.234C461.29,-158.419 419.459,-140.441 395.688,-108 380.34,-87.055 380.761,-55.5625 382.908,-36.1969"/>
</g>
<!-- ActiveRecord::Base&#45;&gt;Image -->
<g id="edge3" class="edge"><title>ActiveRecord::Base&#45;&gt;Image</title>
<path fill="none" stroke="black" d="M579.054,-162.926C595.964,-149.536 618.89,-129.446 634.688,-108 651.509,-85.1647 664.175,-54.522 671.002,-35.7987"/>
</g>
<!-- ActiveRecord::Base&#45;&gt;Reservation -->
<g id="edge4" class="edge"><title>ActiveRecord::Base&#45;&gt;Reservation</title>
<path fill="none" stroke="black" d="M549.508,-162.23C540.545,-140.875 524.576,-103.489 509.688,-72 503.949,-59.8637 497.077,-46.386 491.701,-36.0589"/>
</g>
<!-- ActiveRecord::Base&#45;&gt;Restaurant -->
<g id="edge8" class="edge"><title>ActiveRecord::Base&#45;&gt;Restaurant</title>
<path fill="none" stroke="black" d="M537.126,-162.854C518.18,-146.731 489.667,-122.468 471.114,-106.68"/>
</g>
<!-- ActiveRecord::Base&#45;&gt;Review -->
<g id="edge9" class="edge"><title>ActiveRecord::Base&#45;&gt;Review</title>
<path fill="none" stroke="black" d="M577.79,-162.942C592.65,-149.849 611.328,-130.132 619.688,-108 629.194,-82.8313 613.984,-53.1342 601.969,-35.2017"/>
</g>
<!-- ActiveRecord::Base&#45;&gt;User -->
<g id="edge15" class="edge"><title>ActiveRecord::Base&#45;&gt;User</title>
<path fill="none" stroke="black" d="M561.894,-162.436C566.705,-146.665 573.812,-123.37 578.589,-107.711"/>
</g>
</g>
</svg>
